<svg width="24" height="24" viewBox="0 0 24 24" fill="none" xmlns="http://www.w3.org/2000/svg">
<path d="M4.97775 14.8769C5.24265 15.1431 5.36386 15.5294 5.30122 15.9078L4.16905 22.5351C4.09945 22.9593 4.26426 23.3882 4.59515 23.6442C4.92604 23.9002 5.36662 23.9396 5.73427 23.746L11.4108 20.566C11.7368 20.3837 12.1283 20.3837 12.4543 20.566L18.1308 23.746C18.5003 23.9552 18.952 23.9238 19.2918 23.6653C19.6315 23.4067 19.7989 22.9671 19.7221 22.5351L18.6004 15.9078C18.5377 15.5294 18.6589 15.1431 18.9238 14.8769L23.5673 10.2133C23.8689 9.90807 23.9772 9.44952 23.8461 9.03262C23.715 8.61572 23.3677 8.31376 22.9517 8.25511L16.5812 7.33875C16.2183 7.28632 15.9037 7.04937 15.7412 6.70602L12.9343 0.64057C12.7501 0.24846 12.3686 0 11.9508 0C11.5329 0 11.1515 0.24846 10.9673 0.64057L8.16035 6.70602C7.99389 7.05527 7.67018 7.2932 7.29949 7.33875L0.944703 8.25511C0.529608 8.31549 0.183822 8.61813 0.0539601 9.03471C-0.0759019 9.45128 0.0329136 9.90881 0.334268 10.2133L4.97775 14.8769Z" fill="#111237"/>
</svg>
